<?xml version="1.0" encoding="UTF-8" standalone="no"?>
<svg
   xmlns:dc="http://purl.org/dc/elements/1.1/"
   xmlns:cc="http://creativecommons.org/ns#"
   xmlns:rdf="http://www.w3.org/1999/02/22-rdf-syntax-ns#"
   xmlns:svg="http://www.w3.org/2000/svg"
   xmlns="http://www.w3.org/2000/svg"
   xmlns:sodipodi="http://sodipodi.sourceforge.net/DTD/sodipodi-0.dtd"
   xmlns:inkscape="http://www.inkscape.org/namespaces/inkscape"
   version="1.1"
   id="svg62"
   width="1023"
   height="1016"
   viewBox="0 0 1023 1016"
   sodipodi:docname="image_background.svg"
   inkscape:version="1.0.1 (c497b03c, 2020-09-10)">
  <sodipodi:namedview
     pagecolor="#ffffff"
     bordercolor="#666666"
     borderopacity="1"
     objecttolerance="10"
     gridtolerance="10"
     guidetolerance="10"
     inkscape:pageopacity="0"
     inkscape:pageshadow="2"
     inkscape:window-width="1440"
     inkscape:window-height="789"
     id="namedview863"
     showgrid="false"
     inkscape:zoom="0.56988189"
     inkscape:cx="511.5"
     inkscape:cy="508"
     inkscape:window-x="0"
     inkscape:window-y="25"
     inkscape:window-maximized="1"
     inkscape:current-layer="svg62"
     inkscape:document-rotation="0" />
  <metadata
     id="metadata68">
    <rdf:RDF>
      <cc:Work
         rdf:about="">
        <dc:format>image/svg+xml</dc:format>
        <dc:type
           rdf:resource="http://purl.org/dc/dcmitype/StillImage" />
        <dc:title />
      </cc:Work>
    </rdf:RDF>
  </metadata>
  <defs
     id="defs66" />
  <g
     id="g70"
     style="fill:#ff4081;fill-opacity:1">
    <path
       style="fill:#ff4081;fill-opacity:1"
       d="m 813.31519,909.92623 c -10.54334,-6.7537 -9.46521,-23.8482 1.78806,-28.35087 5.3538,-2.14216 8.66707,-1.98175 13.93486,0.67464 8.24677,4.15861 10.78932,12.98938 6.40192,22.23514 -3.26896,6.88881 -15.26084,9.83793 -22.12484,5.44109 z M 812.98983,799.75 c -1.81826,-1.2375 -4.24731,-3.52024 -5.39788,-5.07276 -2.0722,-2.79611 -2.09454,-3.52062 -2.36684,-76.75 C 805.07392,677.26726 804.69338,644 804.37948,644 c -0.31391,0 -1.76521,0.82143 -3.22511,1.8254 -4.78803,3.29272 -8.81082,4.40844 -13.21319,3.66466 -5.32037,-0.89887 -11.53032,-6.35046 -12.91578,-11.33852 -0.66061,-2.37835 -1.01619,-47.18817 -1.01982,-128.51539 L 774,384.77231 l -2.12753,-3.78543 c -4.45715,-7.93043 -15.10475,-9.71555 -21.71748,-3.64103 -5.29862,4.86735 -5.15457,2.93148 -5.16057,69.35449 -0.003,37.56726 -0.39254,63.19262 -0.99245,65.35211 -2.22788,8.01964 -11.92217,13.40893 -19.66606,10.93283 -2.10975,-0.67459 -5.12883,-2.40975 -6.70907,-3.85591 -4.74164,-4.33931 -5.62668,-7.77471 -5.62839,-21.84725 -0.001,-10.19281 -0.35575,-13.47672 -1.75,-16.21104 -2.36216,-4.63246 -6.12667,-7.19031 -11.4685,-7.79242 -5.02129,-0.56597 -8.83766,0.98852 -12.77995,5.20553 l -2.5,2.67421 -0.5,44.6708 c -0.34025,30.39842 -0.86548,45.46955 -1.6439,47.1708 -2.52845,5.52593 -8.25681,9 -14.84002,9 -7.7559,0 -13.43494,-4.23681 -15.41465,-11.5 -0.7389,-2.71087 -1.09207,-26.8446 -1.09585,-74.88398 -0.004,-50.94659 -0.33248,-71.97509 -1.16783,-74.76324 -1.68534,-5.62514 -8.75075,-10.2465 -14.33265,-9.37473 -5.61492,0.87692 -9.71337,3.51168 -11.75355,7.55597 -1.60881,3.18919 -1.74988,8.49714 -1.76645,66.46598 l -0.018,63 -2.24878,3.97043 c -5.04365,8.90505 -15.48985,11.37529 -23.5163,5.56095 -2.25394,-1.63274 -4.66728,-3.99524 -5.36299,-5.25 -0.7912,-1.42699 -1.46605,-8.15951 -1.80197,-17.97714 L 587.5,519.10847 l -3.29775,-3.40111 c -6.40742,-6.60824 -14.97462,-6.63146 -21.34844,-0.0579 L 559.5,519.10845 559,563.80422 c -0.35093,31.3699 -0.85416,45.48638 -1.68789,47.34751 -2.02519,4.52085 -7.80167,8.14914 -13.63425,8.56385 -6.94905,0.49409 -12.32286,-2.52987 -15.42786,-8.68159 L 526,606.57622 525.998,406.03811 c -0.001,-188.92539 -0.10281,-200.73963 -1.75,-204.01818 -4.98745,-9.92689 -19.29805,-10.81801 -24.91201,-1.55127 -1.74623,2.88243 -1.861,8.75427 -2.33644,119.53134 -0.49483,115.29649 -0.52124,116.53615 -2.55573,119.99944 -2.56427,4.36514 -8.75236,7.96249 -13.73411,7.98411 -4.10492,0.0178 -10.22098,-2.65822 -12.86077,-5.62714 -3.44039,-3.86934 -3.83815,-9.19403 -3.84381,-51.45637 L 464,349.30008 l -3.0334,-4.18749 c -1.66837,-2.30312 -4.17267,-4.62064 -5.5651,-5.15004 -4.33904,-1.6497 -9.88019,-1.11322 -13.50362,1.30738 -5.68793,3.79979 -6.89455,7.52689 -6.89633,21.30193 -0.002,15.82639 -1.46851,20.44541 -7.63929,24.06173 -5.87583,3.44347 -14.8661,3.11296 -18.94358,-0.69641 -6.1664,-5.76094 -5.87208,-2.4076 -6.41868,-73.13239 l -0.5,-64.69522 -3.46489,-3.5741 c -6.57766,-6.78499 -14.57219,-6.70261 -21.28287,0.2193 l -3.25224,3.35462 -0.5,61.77417 -0.5,61.77418 -2.80169,3.67218 C 366.04693,380.11578 362.23313,382 356.19754,382 c -6.27963,0 -10.92546,-2.98783 -13.94754,-8.96996 -2.17496,-4.30528 -2.25073,-5.40562 -2.27196,-32.99193 -0.0201,-26.1232 -0.18684,-28.9014 -1.97043,-32.83126 -2.59531,-5.71838 -8.76979,-8.71973 -15.04017,-7.31087 -4.17076,0.93711 -8.14683,3.86982 -10.30926,7.60402 -0.833,1.43847 -1.29856,21.23236 -1.65818,70.5 l -0.5,68.5 -2.32884,3.26509 c -3.6719,5.1481 -8.04287,6.79789 -16.91828,6.38571 -4.30497,-0.19993 -10.86762,-6.10337 -12.22748,-10.99926 -0.58614,-2.11024 -1.01726,-16.94759 -1.02138,-35.15154 -0.006,-28.00632 -0.20105,-31.8803 -1.75557,-34.92892 -5.07636,-9.95535 -18.68467,-10.59451 -24.97852,-1.1732 L 249,377.29577 l -0.006,69.10211 c -0.004,45.03738 -0.37007,70.41466 -1.05224,72.87108 -4.18018,15.05256 -26.66142,15.21254 -30.8238,0.21935 -0.71715,-2.58322 -1.10919,-17.00034 -1.1128,-40.92259 -0.005,-34.75189 -0.1225,-37.1758 -1.98434,-41.02184 -4.58266,-9.46653 -17.7842,-10.68729 -24.12946,-2.23129 L 187.5,438.5 187,579.0782 l -0.5,140.5782 -2.69355,3.53107 c -6.90746,9.05523 -20.30258,8.80412 -27.21243,-0.51014 -2.07482,-2.79678 -2.0966,-3.50062 -2.37483,-76.75 C 154.01005,590.8668 153.64369,572 152.78364,572 c -0.6351,0 -2.21078,0.9921 -3.50149,2.20466 -1.76692,1.65993 -3.88305,2.29929 -8.56446,2.58761 -5.25973,0.32394 -6.74277,0.0228 -9.62574,-1.95467 -1.87443,-1.28568 -4.34943,-3.60796 -5.5,-5.16062 -2.09076,-2.82141 -2.09223,-2.89604 -2.59195,-131 L 122.5,310.5 l -2.39178,-3.18741 c -4.25573,-5.67139 -11.25887,-7.38626 -17.60938,-4.31203 -8.404642,4.06862 -7.933207,0.009 -8.49884,73.17709 -0.492167,63.66438 -0.532773,64.72187 -2.591948,67.5 -7.355947,9.92427 -20.458456,9.92926 -27.807471,0.0106 -1.84349,-2.48808 -2.141868,-4.63741 -2.591948,-18.67083 C 60.521239,409.82055 60.395608,409.04667 58,406.48415 54.403448,402.63702 50.725408,401 45.678269,401 c -3.717866,0 -5.117486,0.61785 -8.79966,3.88454 L 32.5,408.76908 32,453.63454 c -0.550198,49.36975 -0.421283,48.37484 -6.884588,53.13213 -3.852261,2.83544 -10.725239,3.84723 -15.4782471,2.2786 C 7.6501408,508.38949 4.6689053,506.2085 3.012197,504.19863 L 0,500.54431 V 250.27216 0 H 511.5 1023 v 221.94284 c 0,221.41879 0,221.95098 -2.035,225.39191 -2.0771,3.52034 -9.5994,7.66525 -13.9113,7.66525 -3.9915,0 -10.96537,-4.12151 -13.28468,-7.85118 C 991.56977,443.6122 991.48463,442.54678 991,412.5 c -0.52617,-32.62283 -0.56598,-32.89479 -5.48874,-37.5 -3.58762,-3.3562 -12.88127,-3.58812 -17.18793,-0.42892 -6.55309,4.80709 -6.32006,2.04755 -6.32178,74.8632 -0.002,64.89596 -0.0346,66.00246 -2.0976,70.26413 -2.4696,5.10151 -8.80473,9.30159 -14.02992,9.30159 -5.75263,0 -12.05126,-3.85992 -14.62403,-8.96189 -2.19801,-4.35879 -2.25,-5.22595 -2.25,-37.52749 0,-29.64028 -0.1781,-33.32174 -1.71924,-35.53811 -2.66168,-3.82785 -5.42988,-5.83934 -9.6802,-7.03402 -5.10235,-1.43417 -11.28547,0.81036 -14.67372,5.32668 L 900.5,448.5 900,520.67741 c -0.49376,71.27606 -0.52612,72.21265 -2.59195,75 C 893.80698,600.5362 889.22918,603 883.80246,603 c -6.03518,0 -9.84911,-1.88407 -13.50077,-6.66934 L 867.5,592.65921 867,552.03331 c -0.45496,-36.96653 -0.66252,-40.87373 -2.30433,-43.37734 -5.89322,-8.98663 -19.05527,-8.67497 -24.70107,0.58489 -1.95745,3.21046 -1.98718,5.32081 -1.99086,141.29725 L 838,788.57622 l -2.25,4.45382 C 832.6709,799.12504 828.10363,802 821.5,802 c -3.75078,0 -6.12753,-0.62839 -8.51017,-2.25 z M 659.79827,646.63844 c -4.45609,-1.97776 -7.5049,-5.51897 -8.83179,-10.25817 -3.94906,-14.10466 10.85845,-25.36123 23.56554,-17.91437 C 679.44032,621.34235 682,625.98122 682,632 c 0,6.01878 -2.55968,10.65765 -7.46798,13.5341 -4.59486,2.69277 -10.2071,3.11342 -14.73375,1.10434 z M 11,560.92625 C 8.7340918,560.43286 6.1777588,558.67947 3.75,555.95346 0.29722422,552.07652 0,551.26508 0,545.71578 c 0,-4.92065 0.46840413,-6.64111 2.5516933,-9.37244 3.3916416,-4.44667 7.3270756,-6.34414 13.1486467,-6.3396 9.122689,0.007 15.289106,6.29545 15.295922,15.59838 C 31.004164,556.3883 21.966691,563.31417 11,560.92625 Z m 275.55573,-32.19326 c -5.07537,-2.87478 -7.7725,-7.52453 -7.84489,-13.52429 -0.10591,-8.77846 5.23588,-14.82288 14.0191,-15.86312 6.5529,-0.7761 11.40512,1.39029 14.88219,6.6445 9.447,14.27538 -6.1892,31.16396 -21.0564,22.74291 z"
       id="path108" />
  </g>
</svg>
